<svg version="1.2" xmlns="http://www.w3.org/2000/svg" viewBox="0 0 278 288" width="278" height="288">
	<style>
		.s0 { fill: #737373 } 
	</style>
	<path fill-rule="evenodd" class="s0" d="m275.72 191.22c0.05-0.16-0.17-0.25-0.24-0.1-23.98 52.03-71.94 88.08-133.7 88.08-65.57 0-127.01-50.82-127.01-128.54 0-66.96 51.4-122.56 111.06-122.56 50.22 0 85.07 31.09 85.07 53.21 0 10.16-6.5 17.34-16.54 17.34-23.04 0-31.9-41.85-75.62-41.85-44.3 0-82.11 43.04-82.11 93.86 0 65.77 51.39 108.82 102.79 108.82 20.09 0 31.24-5.35 34.46-7.18 0.13-0.07 0.04-0.28-0.1-0.23-3.2 1.02-13.26 3.82-27.27 3.82-63.21 0-88.62-49.63-88.62-81.91 0-24.51 15.36-34.68 27.77-34.68 33.08 0 28.36 71.75 109.88 71.75 42.54 0 82.12-29.3 82.12-87.29 0-65.77-61.44-123.76-135.88-123.76-77.98 0-141.78 63.97-141.78 143.49 0 80.11 66.17 144.08 141.78 144.08 66.38 0 116.11-44.14 133.94-96.35z"/>
</svg>