<svg width="2500" height="2500" viewBox="0 0 2500 2500" fill="none" xmlns="http://www.w3.org/2000/svg">
<g clip-path="url(#clip0_3019_759)">
<path d="M2462.48 1552.38C2295.53 2222.03 1617.25 2629.53 947.52 2462.58C278.105 2295.62 -129.434 1617.34 37.5586 947.734C204.434 278.008 882.676 -129.57 1552.21 37.3826C2221.89 204.336 2629.43 882.695 2462.48 1552.38Z" fill="black"/>
<path d="M1801.15 1071.91C1826 905.586 1699.36 816.172 1526.19 756.523L1582.36 531.211L1445.18 497.031L1390.49 716.406C1354.47 707.422 1317.44 698.945 1280.64 690.547L1335.72 469.727L1198.65 435.547L1142.44 660.781C1112.6 653.984 1083.3 647.266 1054.86 640.195L1055.02 639.492L865.879 592.266L829.395 738.75C829.395 738.75 931.152 762.07 929.004 763.516C984.551 777.383 994.629 814.141 992.91 843.281L928.926 1099.96C932.754 1100.94 937.715 1102.34 943.184 1104.53L928.73 1100.94L839.004 1460.51C832.207 1477.38 814.981 1502.7 776.152 1493.09C777.52 1495.08 676.465 1468.2 676.465 1468.2L608.379 1625.23L786.895 1669.73C820.098 1678.05 852.637 1686.76 884.629 1694.96L827.871 1922.89L964.863 1957.07L1021.11 1731.6C1058.5 1741.76 1094.82 1751.13 1130.37 1759.96L1074.36 1984.38L1211.5 2018.55L1268.26 1791.09C1502.13 1835.35 1678.03 1817.5 1751.97 1606.02C1811.62 1435.7 1749.04 1337.46 1626 1273.36C1715.61 1252.62 1783.14 1193.67 1801.15 1071.91ZM1487.75 1511.33C1445.33 1681.64 1158.61 1589.61 1065.61 1566.48L1140.92 1264.57C1233.89 1287.77 1531.93 1333.71 1487.75 1511.33ZM1530.14 1069.45C1491.46 1224.38 1252.79 1145.66 1175.33 1126.37L1243.61 852.539C1321.07 871.836 1570.45 907.852 1530.14 1069.45Z" fill="#06A8C6"/>
</g>
<defs>
<clipPath id="clip0_3019_759">
<rect width="2500" height="2500" fill="white"/>
</clipPath>
</defs>
</svg>
