<svg version="1.2" xmlns="http://www.w3.org/2000/svg" viewBox="0 0 512 512" width="512" height="512">
	<style>
		.s0 { fill: #000000 } 
		.s1 { opacity: .9;fill: #f6ae3f } 
	</style>
	<path fill-rule="evenodd" class="s0" d="m246.15 0h19.7c135.94 0 246.15 110.21 246.15 246.15v19.7c0 135.94-110.21 246.15-246.15 246.15h-19.7c-135.94 0-246.15-110.21-246.15-246.15v-19.7c0-135.94 110.21-246.15 246.15-246.15z"/>
	<path class="s1" d="m193.76 120.12h-4.86c-6.88 0-13.23 3.67-16.68 9.64l-67.08 116.04c-3.47 6-3.47 13.41 0 19.41l64.86 112.2-2.54-51.83q-0.02-0.52 0.23-0.99c1.53-2.93 1.47-6.46-0.2-9.34l-34.54-59.74 53.11-91.87 28.58 48.14-22.73 39.49c-1.72 2.99-1.72 6.68 0 9.67l23.08 40.12-38.88 65.49 0.25 0.15-6.36 10.71 2.22 3.84c3.45 5.97 9.8 9.64 16.68 9.64h134.2c6.88 0 13.23-3.67 16.68-9.64l64.31-111.24-44.21 28.73q-0.44 0.27-0.96 0.3c-3.24 0.17-6.18 1.97-7.82 4.8l-33.55 58.04h-105.01l27.99-47.15h44.24c3.44 0 6.62-1.84 8.35-4.83l22.95-39.89h88.02l2.77-4.8c3.47-6 3.47-13.41 0-19.41l-67.08-116.04c-3.45-5.97-9.8-9.64-16.68-9.64h-129.34l47.83 24.04q0.45 0.23 0.74 0.67c1.78 2.68 4.78 4.3 8.01 4.3h67.21l53.11 91.87h-55.29l-22.25-38.68c-1.73-2.99-4.91-4.83-8.35-4.83h-44.96l-38.86-65.45-0.09 0.05z"/>
</svg>