<svg version="1.2" xmlns="http://www.w3.org/2000/svg" viewBox="0 0 125 125" width="125" height="125">
	<defs>
		<clipPath clipPathUnits="userSpaceOnUse" id="cp1">
			<path d="m0.45 0.22h123.95v123.94h-123.95z"/>
		</clipPath>
		<clipPath clipPathUnits="userSpaceOnUse" id="cp2">
			<path d="m124.39 0.21h-123.94v123.95h123.94z"/>
		</clipPath>
	</defs>
	<style>
		.s0 { fill: #0052ff } 
		.s1 { fill: #ffffff } 
	</style>
	<g id="Clip-Path" clip-path="url(#cp1)">
		<g>
			<g id="Clip-Path" clip-path="url(#cp2)">
				<g>
					<path class="s0" d="m62.42 0.21c-34.18 0-61.97 27.8-61.97 61.97 0 34.18 27.79 61.98 61.97 61.98 34.18 0 61.97-27.8 61.97-61.98 0-34.17-27.79-61.97-61.97-61.97zm0 113.72c-28.54 0-51.75-23.21-51.75-51.75 0-28.54 23.21-51.74 51.75-51.74 28.54 0 51.75 23.2 51.75 51.74 0 28.54-23.21 51.75-51.75 51.75z"/>
					<path class="s1" d="m62.42 116.41c29.95 0 54.23-24.28 54.23-54.23 0-29.94-24.28-54.22-54.23-54.22-29.95 0-54.22 24.28-54.22 54.22 0 29.95 24.27 54.23 54.22 54.23z"/>
					<path class="s1" d="m62.42 111.02c26.97 0 48.83-21.87 48.83-48.83 0-26.97-21.86-48.84-48.83-48.84-26.97 0-48.83 21.87-48.83 48.84 0 26.96 21.86 48.83 48.83 48.83z"/>
					<path class="s0" d="m87.08 56.11c1.03-6.51-4.22-10.01-11.4-12.34l2.33-8.83-5.68-1.33-2.27 8.59q-2.25-0.53-4.56-1.02l2.29-8.64-5.69-1.34-2.33 8.82q-1.86-0.4-3.63-0.81l0.01-0.03-7.84-1.85-1.52 5.74c0 0 4.22 0.91 4.13 0.97 2.31 0.54 2.72 1.98 2.65 3.12l-2.65 10.05q0.24 0.06 0.59 0.18l-0.6-0.14-3.72 14.08c-0.28 0.66-0.99 1.65-2.6 1.27 0.05 0.08-4.14-0.97-4.14-0.97l-2.82 6.15 7.4 1.74q2.06 0.5 4.05 0.99l-2.35 8.92 5.68 1.34 2.33-8.83q2.33 0.59 4.53 1.11l-2.32 8.79 5.69 1.33 2.35-8.9c9.7 1.73 16.99 1.03 20.05-7.25 2.48-6.66-0.12-10.51-5.22-13.02 3.72-0.81 6.51-3.12 7.26-7.89zm-12.99 17.21c-1.76 6.67-13.65 3.06-17.5 2.16l3.12-11.82c3.86 0.91 16.22 2.71 14.38 9.66zm1.76-17.3c-1.61 6.07-11.5 2.98-14.71 2.23l2.83-10.72c3.21 0.75 13.55 2.16 11.88 8.49z"/>
				</g>
			</g>
		</g>
	</g>
</svg>