<svg width="29.235" height="29.235" viewBox="0 0 29.235 29.235" xmlns="http://www.w3.org/2000/svg"><ellipse cx="14.618" cy="14.618" rx="14.618" ry="14.618" fill="#40a8d8" opacity="0.152"/><g transform="translate(3.372 3.838)"><path d="M725.019,518.05c0-2.181-1.308-2.928-3.925-3.24-1.869-.249-2.243-.748-2.243-1.62s.623-1.433,1.869-1.433a1.844,1.844,0,0,1,2.056,1.308.468.468,0,0,0,.436.311h1a.426.426,0,0,0,.436-.436v-.062a3.112,3.112,0,0,0-2.8-2.555v-1.5c0-.249-.187-.436-.5-.5h-.935c-.249,0-.436.187-.5.5v1.433a3.177,3.177,0,0,0-3.053,3.053c0,2.056,1.246,2.866,3.863,3.178,1.745.311,2.306.685,2.306,1.682s-.872,1.682-2.056,1.682c-1.62,0-2.181-.686-2.368-1.62a.455.455,0,0,0-.436-.374h-1.059a.426.426,0,0,0-.436.436v.063a3.48,3.48,0,0,0,3.3,2.991v1.5c0,.249.187.436.5.5h.935c.249,0,.436-.187.5-.5v-1.5A3.413,3.413,0,0,0,725.019,518.05Z" transform="translate(-709.661 -505.09)" fill="#40a8d8"/><path d="M256.034,311.172a9.324,9.324,0,0,1,0-17.509.626.626,0,0,0,.374-.623v-.872a.474.474,0,0,0-.374-.5.376.376,0,0,0-.249.062,11.213,11.213,0,0,0,0,21.372.379.379,0,0,0,.561-.249c.062-.062.062-.125.062-.249v-.872A.83.83,0,0,0,256.034,311.172Zm6.6-19.44a.379.379,0,0,0-.561.249c-.062.062-.062.125-.062.249v.872a.827.827,0,0,0,.374.623,9.324,9.324,0,0,1,0,17.509.625.625,0,0,0-.374.623v.872a.473.473,0,0,0,.374.5.376.376,0,0,0,.249-.062,11.261,11.261,0,0,0,0-21.434Z" transform="translate(-247.966 -291.67)" fill="#40a8d8"/></g></svg>